<?xml version="1.0" encoding="utf-8"?>
<!-- Generator: Adobe Illustrator 21.1.0, SVG Export Plug-In . SVG Version: 6.00 Build 0)  -->
<svg version="1.1" id="Layer_1" xmlns="http://www.w3.org/2000/svg" xmlns:xlink="http://www.w3.org/1999/xlink" x="0px" y="0px"
	 viewBox="0 0 417.9 417.9" style="enable-background:new 0 0 417.9 417.9;" xml:space="preserve">
<style type="text/css">
	.st0{fill:#D9271C;}
	.st1{fill:#FFFFFF;stroke:#FFFFFF;stroke-width:12;stroke-miterlimit:10;}
</style>
<title>Asset 2</title>
<g id="Layer_2">
	<g id="Layer_1-2">
		<path class="st0" d="M83.5,0h251c46.1,0,83.5,37.4,83.5,83.5v251c0,46.1-37.4,83.5-83.5,83.5h-251C37.4,417.9,0,380.5,0,334.4
			v-251C0,37.4,37.4,0,83.5,0z"/>
		<path class="st1" d="M100.1,311.6c-0.5-0.6-1-1.2-1.3-1.9c-2.5-4.3-3.6-7.8-3.4-10.5c0.2-3,1.8-5.4,4.6-7.4c2.1-2,4.8-2.8,8.3-2.7
			c3.5,0.2,6.7,1.8,8.9,4.4c10.9,14.7,24.9,26.8,41,35.4c16.6,9.1,36.3,13.6,58.9,13.6c13.3,0,26.6-2.2,39.1-6.5
			c12.5-4.3,22.8-10.8,30.8-19.5c8-8.7,12-19.3,12-31.9c0-13.4-3.9-24.1-11.7-32.2c-7.8-8.1-17.9-14.5-30.2-19.2
			c-12.7-4.8-25.6-8.8-38.8-11.8c-14.4-3.5-28-7.6-41-12.1c-12.1-4.1-23.6-9.9-34.2-17.1c-9.4-6.4-17.4-14.8-23.4-24.5
			c-5.8-9.4-8.6-20.6-8.6-33.6c-0.2-14.8,4.4-29.3,12.9-41.3c8.6-12.2,20.7-21.7,36.4-28.6S194.1,54,214.6,54
			c10.6,0.1,21.1,1.3,31.4,3.5c11.6,2.5,22.8,6.6,33.3,12.1c11.3,5.9,21.5,13.8,30.1,23.2c0.4,0.5,0.9,0.9,1.5,1.3
			c2.7,2.2,4,4.9,3.8,8c0,0.3-0.1,0.6-0.1,0.9c-0.9,6.1-6.3,10.6-12.4,10.6c0,0-0.1,0-0.1,0c-2.9,0-5.6-1.3-7.4-3.5
			c-10.3-11.2-23.1-19.9-37.3-25.4c-14.5-5.5-29.8-8.3-45.3-8.2c-12.9-0.1-25.8,2.1-37.9,6.5c-11.7,4.3-21.3,10.7-28.7,19.2
			c-7.3,8.3-11,18.8-11.1,31.5c0,0.4,0,0.8,0,1.3c0.9,11.9,5.3,21.7,13.2,29.5c8,7.9,18.7,14.4,32,19.5
			c14.8,5.6,29.9,10.3,45.3,14.2c12.8,2.9,25.5,6.6,37.9,10.9c11,3.7,21.3,9,30.8,15.6c8.7,6.2,15.9,14.2,21,23.6
			c5.1,9.4,7.7,21.2,7.7,35.4c0,16.5-4.6,30.8-13.9,42.8s-22,21.2-38.2,27.7c-16.2,6.5-34.8,9.7-55.8,9.7
			c-21.2,0-42.1-4.2-61.6-12.4C133.6,343.3,116,330.1,100.1,311.6z"/>
	</g>
</g>
</svg>
